<?xml version="1.0" encoding="utf-8"?>
<!-- Generator: Adobe Illustrator 17.0.0, SVG Export Plug-In . SVG Version: 6.00 Build 0)  -->
<!DOCTYPE svg PUBLIC "-//W3C//DTD SVG 1.1//EN" "http://www.w3.org/Graphics/SVG/1.1/DTD/svg11.dtd">
<svg version="1.1" id="图层_1" xmlns="http://www.w3.org/2000/svg" xmlns:xlink="http://www.w3.org/1999/xlink" x="0px" y="0px"
	 width="22px" height="22px" viewBox="0 0 22 22" enable-background="new 0 0 22 22" xml:space="preserve">
<g>
	<g>
		<path fill-rule="evenodd" clip-rule="evenodd" fill="#040000" d="M11,3c-4.694,0-8.5,3.806-8.5,8.5S6.306,20,11,20
			s8.5-3.806,8.5-8.5S15.694,3,11,3z M11,17c-0.552,0-1-0.448-1-1s0.448-1,1-1s1,0.448,1,1S11.552,17,11,17z M12,13
			c0,0.552-0.448,1-1,1s-1-0.448-1-1V7.5c0-0.552,0.448-1,1-1s1,0.448,1,1V13z"/>
	</g>
</g>
</svg>
