<?xml version="1.0" encoding="utf-8"?>
<!-- Generator: Adobe Illustrator 17.0.0, SVG Export Plug-In . SVG Version: 6.00 Build 0)  -->
<!DOCTYPE svg PUBLIC "-//W3C//DTD SVG 1.1//EN" "http://www.w3.org/Graphics/SVG/1.1/DTD/svg11.dtd">
<svg version="1.1" id="图层_1" xmlns="http://www.w3.org/2000/svg" xmlns:xlink="http://www.w3.org/1999/xlink" x="0px" y="0px"
	 width="22px" height="22px" viewBox="0 0 22 22" enable-background="new 0 0 22 22" xml:space="preserve">
<g>
	<g>
		<path fill-rule="evenodd" clip-rule="evenodd" fill="#040000" d="M20.398,1.199l-0.872-0.436C18.328,2.644,14.967,4,11,4
			C7.128,4,3.836,2.707,2.566,0.896L1.738,1.414c1.14,1.612,3.435,2.718,6.058,3.241C4.706,5.809,2.5,8.801,2.5,12.321
			c0,4.521,3.631,8.185,8.111,8.185c4.48,0,8.349-3.665,8.349-8.185c0-1.751-0.585-3.37-1.557-4.701l-0.811,0.41
			c0.881,1.19,1.414,2.645,1.414,4.221c0,4.007-3.41,7.255-7.358,7.255c-3.948,0-7.148-3.248-7.148-7.255
			c0-4.007,3.2-7.255,7.148-7.255c0.082,0,0.139-0.002,0.199-0.005C14.745,5.08,18.695,3.912,20.398,1.199z M10.007,8.766
			l-2.782,2.782c-0.384,0.384-0.384,1.007,0,1.391l2.782,2.782c0.384,0.384,1.007,0.384,1.391,0l2.782-2.782
			c0.384-0.384,0.384-1.007,0-1.391l-2.782-2.782C11.014,8.382,10.391,8.382,10.007,8.766z M13.238,12.867l-1.872,1.871
			c-0.344,0.344-0.903,0.344-1.248,0l-1.871-1.871c-0.344-0.345-0.344-0.903,0-1.248l1.871-1.871c0.345-0.345,0.903-0.345,1.248,0
			l1.872,1.871C13.583,11.964,13.583,12.522,13.238,12.867z"/>
	</g>
</g>
</svg>
