<?xml version="1.0" encoding="utf-8"?>
<!-- Generator: Adobe Illustrator 17.0.0, SVG Export Plug-In . SVG Version: 6.00 Build 0)  -->
<!DOCTYPE svg PUBLIC "-//W3C//DTD SVG 1.1//EN" "http://www.w3.org/Graphics/SVG/1.1/DTD/svg11.dtd">
<svg version="1.1" id="图层_1" xmlns="http://www.w3.org/2000/svg" xmlns:xlink="http://www.w3.org/1999/xlink" x="0px" y="0px"
	 width="22px" height="22px" viewBox="0 0 22 22" enable-background="new 0 0 22 22" xml:space="preserve">
<g>
	<g>
		<path fill-rule="evenodd" clip-rule="evenodd" fill="#040000" d="M14,3H8v1h6V3z M19,3h-1.5v1H19c0.552,0,1,0.448,1,1v2H2V5
			c0-0.552,0.448-1,1-1h1.5V3H3C1.895,3,1,3.896,1,5v13.5c0,1.105,0.895,2,2,2h16c1.105,0,2-0.896,2-2V5C21,3.896,20.105,3,19,3z
			 M20,18.5c0,0.552-0.448,1-1,1H3c-0.552,0-1-0.448-1-1V8h18V18.5z M6.25,5C6.664,5,7,4.664,7,4.25v-1.5C7,2.336,6.664,2,6.25,2
			S5.5,2.336,5.5,2.75v1.5C5.5,4.664,5.836,5,6.25,5z M15.75,5c0.414,0,0.75-0.336,0.75-0.75v-1.5C16.5,2.336,16.164,2,15.75,2
			S15,2.336,15,2.75v1.5C15,4.664,15.336,5,15.75,5z M5.75,13C6.44,13,7,12.44,7,11.75c0-0.691-0.56-1.25-1.25-1.25
			c-0.69,0-1.25,0.56-1.25,1.25C4.5,12.44,5.06,13,5.75,13z M10.75,13c0.69,0,1.25-0.56,1.25-1.25c0-0.691-0.56-1.25-1.25-1.25
			c-0.69,0-1.25,0.56-1.25,1.25C9.5,12.44,10.06,13,10.75,13z M15.75,13c0.69,0,1.25-0.56,1.25-1.25c0-0.691-0.56-1.25-1.25-1.25
			c-0.69,0-1.25,0.56-1.25,1.25C14.5,12.44,15.06,13,15.75,13z M5.75,17C6.44,17,7,16.44,7,15.75S6.44,14.5,5.75,14.5
			c-0.69,0-1.25,0.56-1.25,1.25S5.06,17,5.75,17z M10.75,17c0.69,0,1.25-0.56,1.25-1.25s-0.56-1.25-1.25-1.25
			c-0.69,0-1.25,0.56-1.25,1.25S10.06,17,10.75,17z"/>
	</g>
</g>
</svg>
