<?xml version="1.0" encoding="utf-8"?>
<!-- Generator: Adobe Illustrator 17.0.0, SVG Export Plug-In . SVG Version: 6.00 Build 0)  -->
<!DOCTYPE svg PUBLIC "-//W3C//DTD SVG 1.1//EN" "http://www.w3.org/Graphics/SVG/1.1/DTD/svg11.dtd">
<svg version="1.1" id="图层_1" xmlns="http://www.w3.org/2000/svg" xmlns:xlink="http://www.w3.org/1999/xlink" x="0px" y="0px"
	 width="22px" height="22px" viewBox="0 0 22 22" enable-background="new 0 0 22 22" xml:space="preserve">
<g>
	<g>
		<path fill-rule="evenodd" clip-rule="evenodd" fill="#040000" d="M4.5,17.5h13v-1h-13V17.5z M17,3.5h-4.5V3
			c0-0.828-0.672-1.5-1.5-1.5c-0.828,0-1.5,0.672-1.5,1.5v0.5H5C3.619,3.5,2.5,4.619,2.5,6v12.5C2.5,19.881,3.619,21,5,21h12
			c1.381,0,2.5-1.119,2.5-2.5V6C19.5,4.619,18.381,3.5,17,3.5z M10.5,3c0-0.276,0.224-0.5,0.5-0.5c0.276,0,0.5,0.224,0.5,0.5v1
			c0,0.276-0.224,0.5-0.5,0.5c-0.276,0-0.5-0.224-0.5-0.5V3z M18.5,18c0,1.104-0.895,2-2,2h-11c-1.105,0-2-0.895-2-2V6.5
			c0-1.105,0.895-2,2-2h4V4c0,0.828,0.672,1.5,1.5,1.5c0.828,0,1.5-0.672,1.5-1.5v0.5h4c1.105,0,2,0.895,2,2V18z M7.5,14.5
			C7.5,14.776,7.724,15,8,15c0.276,0,0.5-0.224,0.5-0.5c0-1.381,1.119-2.5,2.5-2.5c1.381,0,2.5,1.119,2.5,2.5
			c0,0.276,0.224,0.5,0.5,0.5c0.276,0,0.5-0.224,0.5-0.5c0-1.353-0.776-2.512-1.898-3.095C13.146,10.946,13.5,10.268,13.5,9.5
			C13.5,8.119,12.381,7,11,7C9.619,7,8.5,8.119,8.5,9.5c0,0.768,0.354,1.446,0.898,1.905C8.276,11.988,7.5,13.148,7.5,14.5z M11,8
			c0.828,0,1.5,0.672,1.5,1.5c0,0.828-0.672,1.5-1.5,1.5c-0.828,0-1.5-0.672-1.5-1.5C9.5,8.672,10.172,8,11,8z"/>
	</g>
</g>
</svg>
