<?xml version="1.0" encoding="utf-8"?>
<!-- Generator: Adobe Illustrator 17.0.0, SVG Export Plug-In . SVG Version: 6.00 Build 0)  -->
<!DOCTYPE svg PUBLIC "-//W3C//DTD SVG 1.1//EN" "http://www.w3.org/Graphics/SVG/1.1/DTD/svg11.dtd">
<svg version="1.1" id="图层_1" xmlns="http://www.w3.org/2000/svg" xmlns:xlink="http://www.w3.org/1999/xlink" x="0px" y="0px"
	 width="22px" height="22px" viewBox="0 0 22 22" enable-background="new 0 0 22 22" xml:space="preserve">
<g>
	<g>
		<path fill-rule="evenodd" clip-rule="evenodd" fill="#040000" d="M14.5,5.5h-8c-1.105,0-2,0.895-2,2v8c0,1.105,0.895,2,2,2h8
			c1.105,0,2-0.895,2-2v-8C16.5,6.395,15.605,5.5,14.5,5.5z M15.5,14.833c0,0.92-0.746,1.667-1.667,1.667H7.167
			c-0.92,0-1.667-0.746-1.667-1.667V8.167C5.5,7.246,6.246,6.5,7.167,6.5h6.667c0.92,0,1.667,0.746,1.667,1.667V14.833z
			 M13.036,9.086l-3.596,3.596l-1.475-1.475c-0.195-0.195-0.512-0.195-0.707,0c-0.195,0.195-0.195,0.512,0,0.707l1.828,1.828
			c0.195,0.195,0.512,0.195,0.707,0l3.95-3.95c0.195-0.195,0.195-0.512,0-0.707C13.547,8.891,13.231,8.891,13.036,9.086z"/>
	</g>
</g>
</svg>
