<?xml version="1.0" encoding="utf-8"?>
<!-- Generator: Adobe Illustrator 17.0.0, SVG Export Plug-In . SVG Version: 6.00 Build 0)  -->
<!DOCTYPE svg PUBLIC "-//W3C//DTD SVG 1.1//EN" "http://www.w3.org/Graphics/SVG/1.1/DTD/svg11.dtd">
<svg version="1.1" id="图层_1" xmlns="http://www.w3.org/2000/svg" xmlns:xlink="http://www.w3.org/1999/xlink" x="0px" y="0px"
	 width="22px" height="22px" viewBox="0 0 22 22" enable-background="new 0 0 22 22" xml:space="preserve">
<g>
	<g>
		<path fill-rule="evenodd" clip-rule="evenodd" fill="#040000" d="M15.014,7.537l-4.164,4.165L8.111,8.963
			c-0.195-0.195-0.512-0.195-0.707,0c-0.195,0.195-0.195,0.512,0,0.707l2.739,2.739l-0.785,0.785c-0.195,0.195-0.195,0.512,0,0.707
			c0.195,0.195,0.512,0.195,0.707,0l0.785-0.785l0.797,0.797c0.195,0.195,0.512,0.195,0.707,0c0.195-0.195,0.195-0.512,0-0.707
			l-0.797-0.797l4.164-4.164c0.195-0.195,0.195-0.512,0-0.707C15.526,7.342,15.209,7.342,15.014,7.537z M11,1.5
			c-5.523,0-10,4.477-10,10c0,5.523,4.477,10,10,10c5.523,0,10-4.477,10-10C21,5.977,16.523,1.5,11,1.5z M11.5,20.467V18
			c0-0.276-0.224-0.5-0.5-0.5c-0.276,0-0.5,0.224-0.5,0.5v2.467C5.961,20.214,2.264,16.561,2.028,12H4.5C4.776,12,5,11.776,5,11.5
			C5,11.224,4.776,11,4.5,11H2.033C2.308,6.471,5.988,2.787,10.5,2.53V5c0,0.276,0.224,0.5,0.5,0.5c0.276,0,0.5-0.224,0.5-0.5V2.531
			c4.513,0.257,8.193,3.941,8.468,8.469H17.5c-0.276,0-0.5,0.224-0.5,0.5c0,0.276,0.224,0.5,0.5,0.5h2.472
			C19.736,16.561,16.039,20.214,11.5,20.467z"/>
	</g>
</g>
</svg>
