<?xml version="1.0" encoding="utf-8"?>
<!-- Generator: Adobe Illustrator 17.0.0, SVG Export Plug-In . SVG Version: 6.00 Build 0)  -->
<!DOCTYPE svg PUBLIC "-//W3C//DTD SVG 1.1//EN" "http://www.w3.org/Graphics/SVG/1.1/DTD/svg11.dtd">
<svg version="1.1" id="图层_1" xmlns="http://www.w3.org/2000/svg" xmlns:xlink="http://www.w3.org/1999/xlink" x="0px" y="0px"
	 width="22px" height="22px" viewBox="0 0 22 22" enable-background="new 0 0 22 22" xml:space="preserve">
<g>
	<g>
		<path fill-rule="evenodd" clip-rule="evenodd" fill="#040000" d="M11,1.5c-5.523,0-10,4.477-10,10c0,5.523,4.477,10,10,10
			c5.523,0,10-4.477,10-10C21,5.977,16.523,1.5,11,1.5z M11,20.5c-4.971,0-9-4.029-9-9c0-4.971,4.029-9,9-9c4.971,0,9,4.029,9,9
			C20,16.471,15.971,20.5,11,20.5z M15.596,6.904c-0.195-0.195-0.512-0.195-0.707,0L11,10.793L7.111,6.904
			c-0.195-0.195-0.512-0.195-0.707,0c-0.195,0.195-0.195,0.512,0,0.707l3.889,3.889l-3.889,3.889c-0.195,0.195-0.195,0.512,0,0.707
			c0.195,0.195,0.512,0.195,0.707,0L11,12.207l3.889,3.889c0.195,0.195,0.512,0.195,0.707,0c0.195-0.195,0.195-0.512,0-0.707
			L11.707,11.5l3.889-3.889C15.791,7.416,15.791,7.099,15.596,6.904z"/>
	</g>
</g>
</svg>
