<?xml version="1.0" encoding="utf-8"?>
<!-- Generator: Adobe Illustrator 17.0.0, SVG Export Plug-In . SVG Version: 6.00 Build 0)  -->
<!DOCTYPE svg PUBLIC "-//W3C//DTD SVG 1.1//EN" "http://www.w3.org/Graphics/SVG/1.1/DTD/svg11.dtd">
<svg version="1.1" id="图层_1" xmlns="http://www.w3.org/2000/svg" xmlns:xlink="http://www.w3.org/1999/xlink" x="0px" y="0px"
	 width="22px" height="22px" viewBox="0 0 22 22" enable-background="new 0 0 22 22" xml:space="preserve">
<g>
	<g>
		<path fill-rule="evenodd" clip-rule="evenodd" fill="#040000" d="M11,1.5c-5.523,0-10,4.477-10,10c0,5.523,4.477,10,10,10
			c5.523,0,10-4.477,10-10C21,5.977,16.523,1.5,11,1.5z M11,20.5c-4.971,0-9-4.029-9-9s4.029-9,9-9c4.971,0,9,4.029,9,9
			S15.971,20.5,11,20.5z M15.773,8.452l-6.718,6.718l-2.828-2.828c-0.195-0.195-0.512-0.195-0.707,0
			c-0.195,0.195-0.195,0.512,0,0.707l3.182,3.182c0.195,0.195,0.512,0.195,0.707,0l7.071-7.071c0.195-0.195,0.195-0.512,0-0.707
			C16.285,8.257,15.968,8.257,15.773,8.452z"/>
	</g>
</g>
</svg>
