<?xml version="1.0" encoding="utf-8"?>
<!-- Generator: Adobe Illustrator 17.0.0, SVG Export Plug-In . SVG Version: 6.00 Build 0)  -->
<!DOCTYPE svg PUBLIC "-//W3C//DTD SVG 1.1//EN" "http://www.w3.org/Graphics/SVG/1.1/DTD/svg11.dtd">
<svg version="1.1" id="图层_1" xmlns="http://www.w3.org/2000/svg" xmlns:xlink="http://www.w3.org/1999/xlink" x="0px" y="0px"
	 width="22px" height="22px" viewBox="0 0 22 22" enable-background="new 0 0 22 22" xml:space="preserve">
<g>
	<g>
		<path fill-rule="evenodd" clip-rule="evenodd" fill="#040000" d="M11,6C9.343,6,8,7.343,8,9c0,1.657,1.343,3,3,3
			c1.657,0,3-1.343,3-3C14,7.343,12.657,6,11,6z M11,11c-1.104,0-2-0.895-2-2c0-1.104,0.896-2,2-2c1.105,0,2,0.896,2,2
			C13,10.105,12.105,11,11,11z M11,1.5c-4.418,0-8,3.544-8,7.917C3,13.789,11,21.5,11,21.5s8-7.711,8-12.083
			C19,5.044,15.418,1.5,11,1.5z M11,20.007c0,0-7.001-6.745-7.001-10.573c0-3.829,3.135-6.932,7.001-6.932s7.001,3.104,7.001,6.932
			C18.001,13.262,11,20.007,11,20.007z"/>
	</g>
</g>
</svg>
