<?xml version="1.0" encoding="utf-8"?>
<!-- Generator: Adobe Illustrator 17.0.0, SVG Export Plug-In . SVG Version: 6.00 Build 0)  -->
<!DOCTYPE svg PUBLIC "-//W3C//DTD SVG 1.1//EN" "http://www.w3.org/Graphics/SVG/1.1/DTD/svg11.dtd">
<svg version="1.1" id="图层_1" xmlns="http://www.w3.org/2000/svg" xmlns:xlink="http://www.w3.org/1999/xlink" x="0px" y="0px"
	 width="22px" height="22px" viewBox="0 0 22 22" enable-background="new 0 0 22 22" xml:space="preserve">
<g>
	<g>
		<path fill-rule="evenodd" clip-rule="evenodd" fill="#040000" d="M19.5,11.468C19.5,6.791,15.694,3,11,3s-8.5,3.791-8.5,8.468
			c0,2.571,1.154,4.87,2.97,6.423c-0.053,0.048-0.105,0.098-0.146,0.16l-1.011,1.55c-0.209,0.321-0.151,0.698,0.132,0.842
			c0.282,0.144,0.68,0.001,0.89-0.32l1.011-1.55c0.004-0.006,0.004-0.013,0.008-0.019c1.336,0.871,2.93,1.382,4.646,1.382
			s3.31-0.511,4.646-1.382c0.004,0.006,0.004,0.013,0.008,0.019l1.011,1.55c0.209,0.321,0.608,0.464,0.89,0.32
			c0.282-0.144,0.341-0.521,0.132-0.842l-1.011-1.55c-0.041-0.062-0.093-0.112-0.146-0.16C18.346,16.338,19.5,14.039,19.5,11.468z
			 M11,18.807c-4.068,0-7.367-3.286-7.367-7.339c0-4.053,3.298-7.339,7.367-7.339s7.367,3.286,7.367,7.339
			C18.367,15.521,15.068,18.807,11,18.807z M13.475,8.818L11,11.293L9.232,9.525c-0.195-0.195-0.512-0.195-0.707,0
			c-0.195,0.195-0.195,0.512,0,0.707L10.293,12l-0.354,0.353c-0.195,0.195-0.195,0.512,0,0.707c0.195,0.195,0.512,0.195,0.707,0
			L11,12.707l0.354,0.354c0.195,0.195,0.512,0.195,0.707,0c0.195-0.195,0.195-0.512,0-0.707L11.707,12l2.475-2.475
			c0.195-0.195,0.195-0.512,0-0.707C13.987,8.623,13.67,8.623,13.475,8.818z M3,4.5C3,3.119,4.119,2,5.5,2
			c0.502,0,0.967,0.151,1.359,0.406c0.347-0.158,0.702-0.302,1.068-0.42C7.298,1.378,6.444,1,5.5,1C3.567,1,2,2.567,2,4.5
			c0,0.646,0.187,1.244,0.493,1.763C2.695,5.936,2.912,5.62,3.149,5.319C3.059,5.061,3,4.789,3,4.5z M16.5,1
			c-0.944,0-1.798,0.378-2.427,0.986c0.367,0.118,0.722,0.262,1.068,0.42C15.533,2.151,15.998,2,16.5,2C17.881,2,19,3.119,19,4.5
			c0,0.289-0.059,0.561-0.149,0.819c0.237,0.301,0.454,0.617,0.656,0.944C19.813,5.744,20,5.146,20,4.5C20,2.567,18.433,1,16.5,1z"
			/>
	</g>
</g>
</svg>
