<?xml version="1.0" encoding="utf-8"?>
<!-- Generator: Adobe Illustrator 17.0.0, SVG Export Plug-In . SVG Version: 6.00 Build 0)  -->
<!DOCTYPE svg PUBLIC "-//W3C//DTD SVG 1.1//EN" "http://www.w3.org/Graphics/SVG/1.1/DTD/svg11.dtd">
<svg version="1.1" id="图层_1" xmlns="http://www.w3.org/2000/svg" xmlns:xlink="http://www.w3.org/1999/xlink" x="0px" y="0px"
	 width="22px" height="22px" viewBox="0 0 22 22" enable-background="new 0 0 22 22" xml:space="preserve">
<path fill-rule="evenodd" clip-rule="evenodd" fill="#040000" d="M19,20.5H3c-1.104,0-2-0.896-2-2V5c0-1.105,0.895-2,2-2h1.5v1H3
	C2.448,4,2,4.448,2,5v2h18V5c0-0.552-0.448-1-1-1h-1.5V3H19c1.105,0,2,0.895,2,2v13.5C21,19.605,20.105,20.5,19,20.5z M20,8H2v10.5
	c0,0.552,0.448,1,1,1h16c0.552,0,1-0.448,1-1V8z M12.25,17.5c-1.243,0-2.25-1.007-2.25-2.25c0-0.711,0.337-1.338,0.852-1.75
	C10.336,13.088,10,12.461,10,11.75c0-1.243,1.007-2.25,2.25-2.25c1.243,0,2.25,1.007,2.25,2.25c0,0.711-0.337,1.338-0.852,1.75
	c0.515,0.412,0.852,1.039,0.852,1.75C14.5,16.493,13.493,17.5,12.25,17.5z M12.25,10.5c-0.69,0-1.25,0.56-1.25,1.25
	c0,0.69,0.56,1.25,1.25,1.25c0.69,0,1.25-0.56,1.25-1.25C13.5,11.06,12.94,10.5,12.25,10.5z M12.25,14C11.56,14,11,14.56,11,15.25
	c0,0.691,0.56,1.25,1.25,1.25c0.69,0,1.25-0.56,1.25-1.25C13.5,14.56,12.94,14,12.25,14z M7.5,17.5C7.224,17.5,7,17.276,7,17v-7
	c0-0.276,0.224-0.5,0.5-0.5C7.776,9.5,8,9.724,8,10v7C8,17.276,7.776,17.5,7.5,17.5z M15.75,5C15.336,5,15,4.664,15,4.25v-1.5
	C15,2.336,15.336,2,15.75,2c0.414,0,0.75,0.336,0.75,0.75v1.5C16.5,4.664,16.164,5,15.75,5z M8,3h6v1H8V3z M6.25,5
	C5.836,5,5.5,4.664,5.5,4.25v-1.5C5.5,2.336,5.836,2,6.25,2S7,2.336,7,2.75v1.5C7,4.664,6.664,5,6.25,5z"/>
</svg>
