<?xml version="1.0" encoding="utf-8"?>
<!-- Generator: Adobe Illustrator 17.0.0, SVG Export Plug-In . SVG Version: 6.00 Build 0)  -->
<!DOCTYPE svg PUBLIC "-//W3C//DTD SVG 1.1//EN" "http://www.w3.org/Graphics/SVG/1.1/DTD/svg11.dtd">
<svg version="1.1" id="图层_1" xmlns="http://www.w3.org/2000/svg" xmlns:xlink="http://www.w3.org/1999/xlink" x="0px" y="0px"
	 width="22px" height="22px" viewBox="0 0 22 22" enable-background="new 0 0 22 22" xml:space="preserve">
<g>
	<g>
		<path fill-rule="evenodd" clip-rule="evenodd" fill="#040000" d="M19,4h-1v1h1c0.552,0,1,0.448,1,1v13.5c0,0.552-0.448,1-1,1H3
			c-0.552,0-1-0.448-1-1V6c0-0.552,0.448-1,1-1h8V4H3C1.896,4,1,4.896,1,6v13.5c0,1.105,0.896,2,2,2h16c1.105,0,2-0.895,2-2V6
			C21,4.896,20.105,4,19,4z M17,13V4c0-1.381-1.119-2.5-2.5-2.5C13.119,1.5,12,2.619,12,4v9l2.5,4L17,13z M13,4
			c0-0.828,0.672-1.5,1.5-1.5C15.328,2.5,16,3.172,16,4v9h-3V4z M15.5,14l-1,1.5l-1-1.5H15.5z M5.5,10H9c0.276,0,0.5-0.224,0.5-0.5
			C9.5,9.224,9.276,9,9,9H5.5C5.224,9,5,9.224,5,9.5C5,9.776,5.224,10,5.5,10z M5.5,13.5H10c0.276,0,0.5-0.224,0.5-0.5
			c0-0.276-0.224-0.5-0.5-0.5H5.5C5.224,12.5,5,12.724,5,13C5,13.276,5.224,13.5,5.5,13.5z M5,16.5C5,16.776,5.224,17,5.5,17h6
			c0.276,0,0.5-0.224,0.5-0.5c0-0.276-0.224-0.5-0.5-0.5h-6C5.224,16,5,16.224,5,16.5z"/>
	</g>
</g>
</svg>
