<?xml version="1.0" encoding="utf-8"?>
<!-- Generator: Adobe Illustrator 17.0.0, SVG Export Plug-In . SVG Version: 6.00 Build 0)  -->
<!DOCTYPE svg PUBLIC "-//W3C//DTD SVG 1.1//EN" "http://www.w3.org/Graphics/SVG/1.1/DTD/svg11.dtd">
<svg version="1.1" id="图层_1" xmlns="http://www.w3.org/2000/svg" xmlns:xlink="http://www.w3.org/1999/xlink" x="0px" y="0px"
	 width="22px" height="22px" viewBox="0 0 22 22" enable-background="new 0 0 22 22" xml:space="preserve">
<g>
	<g>
		<path fill-rule="evenodd" clip-rule="evenodd" fill="#040000" d="M11,1C5.477,1,1,5.477,1,11c0,5.523,4.477,10,10,10
			c5.523,0,10-4.477,10-10C21,5.477,16.523,1,11,1z M11,20c-4.971,0-9-4.029-9-9c0-4.971,4.029-9,9-9c4.971,0,9,4.029,9,9
			C20,15.971,15.971,20,11,20z M11,14.5c-0.552,0-1,0.448-1,1s0.448,1,1,1s1-0.448,1-1S11.552,14.5,11,14.5z M11,5.5
			c-1.657,0-3,1.343-3,3h1c0-1.104,0.895-2,2-2s2,0.896,2,2s-0.895,2-2,2c-0.174,0-0.339-0.029-0.5-0.071V13
			c0,0.276,0.224,0.5,0.5,0.5c0.276,0,0.5-0.224,0.5-0.5v-1.55C12.918,11.21,14,9.986,14,8.5C14,6.843,12.657,5.5,11,5.5z"/>
	</g>
</g>
</svg>
