<?xml version="1.0" encoding="utf-8"?>
<!-- Generator: Adobe Illustrator 17.0.0, SVG Export Plug-In . SVG Version: 6.00 Build 0)  -->
<!DOCTYPE svg PUBLIC "-//W3C//DTD SVG 1.1//EN" "http://www.w3.org/Graphics/SVG/1.1/DTD/svg11.dtd">
<svg version="1.1" id="图层_1" xmlns="http://www.w3.org/2000/svg" xmlns:xlink="http://www.w3.org/1999/xlink" x="0px" y="0px"
	 width="22px" height="22px" viewBox="0 0 22 22" enable-background="new 0 0 22 22" xml:space="preserve">
<g>
	<g>
		<path fill-rule="evenodd" clip-rule="evenodd" fill="#040000" d="M18.5,2.5h-15C2.119,2.5,1,3.619,1,5v12
			c0,1.381,1.119,2.5,2.5,2.5h15c1.381,0,2.5-1.119,2.5-2.5V5C21,3.619,19.881,2.5,18.5,2.5z M20,17c0,0.828-0.672,1.5-1.5,1.5h-15
			C2.672,18.5,2,17.828,2,17V5c0-0.828,0.672-1.5,1.5-1.5h15C19.328,3.5,20,4.172,20,5V17z M4,15h5.5v-1H4V15z M4,11.5h5.5v-1H4
			V11.5z M4,8h5.5V7H4V8z M16.102,11.405C16.646,10.946,17,10.268,17,9.5C17,8.119,15.881,7,14.5,7C13.119,7,12,8.119,12,9.5
			c0,0.768,0.354,1.446,0.898,1.905C11.775,11.988,11,13.148,11,14.5c0,0.276,0.224,0.5,0.5,0.5c0.276,0,0.5-0.224,0.5-0.5
			c0-1.381,1.119-2.5,2.5-2.5c1.381,0,2.5,1.119,2.5,2.5c0,0.276,0.224,0.5,0.5,0.5c0.276,0,0.5-0.224,0.5-0.5
			C18,13.148,17.225,11.988,16.102,11.405z M14.5,11c-0.828,0-1.5-0.672-1.5-1.5C13,8.672,13.672,8,14.5,8C15.328,8,16,8.672,16,9.5
			C16,10.328,15.328,11,14.5,11z"/>
	</g>
</g>
</svg>
