<?xml version="1.0" encoding="utf-8"?>
<!-- Generator: Adobe Illustrator 17.0.0, SVG Export Plug-In . SVG Version: 6.00 Build 0)  -->
<!DOCTYPE svg PUBLIC "-//W3C//DTD SVG 1.1//EN" "http://www.w3.org/Graphics/SVG/1.1/DTD/svg11.dtd">
<svg version="1.1" id="图层_1" xmlns="http://www.w3.org/2000/svg" xmlns:xlink="http://www.w3.org/1999/xlink" x="0px" y="0px"
	 width="22px" height="22px" viewBox="0 0 22 22" enable-background="new 0 0 22 22" xml:space="preserve">
<g>
	<g>
		<path fill-rule="evenodd" clip-rule="evenodd" fill="#040000" d="M20.984,20.423c-0.138-3.525-2.482-6.481-5.695-7.52
			c1.9-0.939,3.21-2.89,3.21-5.153C18.5,4.574,15.926,2,12.75,2C9.574,2,7,4.574,7,7.75c0,2.262,1.31,4.214,3.21,5.153
			c-3.213,1.039-5.556,3.995-5.695,7.52C4.511,20.449,4.5,20.473,4.5,20.5C4.5,20.776,4.724,21,5,21s0.5-0.224,0.5-0.5h0.013
			c0.133-3.887,3.318-7,7.237-7s7.104,3.113,7.237,7H20c0,0.276,0.224,0.5,0.5,0.5c0.276,0,0.5-0.224,0.5-0.5
			C21,20.473,20.989,20.449,20.984,20.423z M8,7.75C8,5.127,10.127,3,12.75,3s4.75,2.127,4.75,4.75c0,2.623-2.127,4.75-4.75,4.75
			S8,10.373,8,7.75z M7.375,12.6c-0.177-0.195-0.345-0.398-0.5-0.613C5.278,11.921,4,10.614,4,9c0-1.164,0.67-2.162,1.639-2.66
			c0.082-0.418,0.205-0.82,0.355-1.208C4.273,5.579,3,7.139,3,9c0,1.432,0.755,2.684,1.885,3.391C2.617,13.247,1,15.432,1,18
			c0,0.276,0.224,0.5,0.5,0.5C1.776,18.5,2,18.276,2,18c0-2.737,2.201-4.958,4.929-4.996C7.069,12.86,7.219,12.726,7.375,12.6z"/>
	</g>
</g>
</svg>
