<?xml version="1.0" encoding="utf-8"?>
<!-- Generator: Adobe Illustrator 17.0.0, SVG Export Plug-In . SVG Version: 6.00 Build 0)  -->
<!DOCTYPE svg PUBLIC "-//W3C//DTD SVG 1.1//EN" "http://www.w3.org/Graphics/SVG/1.1/DTD/svg11.dtd">
<svg version="1.1" id="图层_1" xmlns="http://www.w3.org/2000/svg" xmlns:xlink="http://www.w3.org/1999/xlink" x="0px" y="0px"
	 width="22px" height="22px" viewBox="0 0 22 22" enable-background="new 0 0 22 22" xml:space="preserve">
<path fill-rule="evenodd" clip-rule="evenodd" fill="#040000" d="M6,17.5l4.5,2L15,17l5.5,2.5V5L15,2l-4.5,2L6,2L1.5,5v14.5L6,17.5z
	 M19.5,5.564L15,3l-4.5,2L6,3L2.5,5.482v12.393L6,16.5l4.5,2L15,16l4.5,1.75V5.564z M14.5,6.5C14.5,6.224,14.724,6,15,6
	c0.276,0,0.5,0.224,0.5,0.5v7c0,0.276-0.224,0.5-0.5,0.5c-0.276,0-0.5-0.224-0.5-0.5V6.5z M11,15.5c-0.276,0-0.5-0.224-0.5-0.5V7.5
	C10.5,7.224,10.724,7,11,7c0.276,0,0.5,0.224,0.5,0.5V15C11.5,15.277,11.276,15.5,11,15.5z M7,14.5c-0.276,0-0.5-0.224-0.5-0.5V6.5
	C6.5,6.224,6.724,6,7,6c0.276,0,0.5,0.224,0.5,0.5V14C7.5,14.276,7.276,14.5,7,14.5z"/>
</svg>
