<?xml version="1.0" encoding="utf-8"?>
<!-- Generator: Adobe Illustrator 17.0.0, SVG Export Plug-In . SVG Version: 6.00 Build 0)  -->
<!DOCTYPE svg PUBLIC "-//W3C//DTD SVG 1.1//EN" "http://www.w3.org/Graphics/SVG/1.1/DTD/svg11.dtd">
<svg version="1.1" id="图层_1" xmlns="http://www.w3.org/2000/svg" xmlns:xlink="http://www.w3.org/1999/xlink" x="0px" y="0px"
	 width="22px" height="22px" viewBox="0 0 22 22" enable-background="new 0 0 22 22" xml:space="preserve">
<g>
	<g>
		<path fill-rule="evenodd" clip-rule="evenodd" fill="#040000" d="M21,11.5c0-1.207-0.855-2.213-1.993-2.447V3.357
			c0-0.264-0.219-0.724-0.467-0.817c-0.249-0.092-0.53-0.022-0.705,0.176c-2.129,2.41-4.851,3.95-8.86,4.271
			C8.942,6.99,8.742,6.99,8.71,6.997c-0.002,0-0.004-0.001-0.006-0.001H5.318c-0.091,0-0.239-0.011-0.317,0.022
			C2.708,7.345,1,9.136,1,11.5c0,2.363,2.155,4.105,4.449,4.432c0.004,0.002,0.01,0.001,0.014,0.003
			c-0.002,0.019-0.011,0.035-0.011,0.054c0,2.36,2.24,4.496,4,4.496c0.727,0,0.727-1.063,0-1.063c-1.676,0-2.971-1.772-2.971-3.433
			c0-0.001-0.001-0.002-0.001-0.003h2.224c0.002,0,0.004-0.001,0.007-0.001c0.031,0.008,0.059,0.023,0.092,0.026
			c4.009,0.321,6.903,1.865,9.032,4.274c0.123,0.14,0.3,0.216,0.48,0.216c0.075,0,0.151-0.013,0.225-0.04
			c0.249-0.092,0.467-0.124,0.467-0.388v-6.124C20.145,13.713,21,12.707,21,11.5z M8.001,14.993L5.74,14.992
			c-1.909,0-3.75-1.598-3.75-3.492c0-1.894,1.841-3.517,3.75-3.517l2.261,0.006V14.993z M17.984,18.967
			c-2.12-2.416-5.56-3.674-8.987-4.038V8.071c3.427-0.364,6.432-1.631,8.987-4.075V18.967z M19.007,12.904v-2.808
			C19.584,10.305,20,10.851,20,11.5C20,12.149,19.584,12.696,19.007,12.904z"/>
	</g>
</g>
</svg>
