<?xml version="1.0" encoding="utf-8"?>
<!-- Generator: Adobe Illustrator 17.0.0, SVG Export Plug-In . SVG Version: 6.00 Build 0)  -->
<!DOCTYPE svg PUBLIC "-//W3C//DTD SVG 1.1//EN" "http://www.w3.org/Graphics/SVG/1.1/DTD/svg11.dtd">
<svg version="1.1" id="图层_1" xmlns="http://www.w3.org/2000/svg" xmlns:xlink="http://www.w3.org/1999/xlink" x="0px" y="0px"
	 width="22px" height="22px" viewBox="0 0 22 22" enable-background="new 0 0 22 22" xml:space="preserve">
<g>
	<g>
		<path fill-rule="evenodd" clip-rule="evenodd" fill="#040000" d="M11.5,1.5c-5.523,0-10,4.477-10,10c0,5.523,4.477,10,10,10
			c5.523,0,10-4.477,10-10C21.5,5.977,17.023,1.5,11.5,1.5z M5.461,18.16C6.403,15.732,8.739,14,11.5,14
			c2.761,0,5.097,1.732,6.039,4.159c-1.598,1.45-3.712,2.341-6.039,2.341C9.173,20.5,7.059,19.609,5.461,18.16z M8.5,10
			c0-1.657,1.343-3,3-3c1.657,0,3,1.343,3,3s-1.343,3-3,3C9.843,13,8.5,11.657,8.5,10z M18.294,17.391
			c-0.884-1.929-2.543-3.422-4.595-4.054C14.783,12.622,15.5,11.396,15.5,10c0-2.209-1.791-4-4-4c-2.209,0-4,1.791-4,4
			c0,1.396,0.717,2.622,1.802,3.338c-2.052,0.631-3.711,2.124-4.595,4.054C3.335,15.812,2.5,13.756,2.5,11.5c0-4.971,4.029-9,9-9
			c4.971,0,9,4.029,9,9C20.5,13.756,19.664,15.812,18.294,17.391z"/>
	</g>
</g>
</svg>
