<?xml version="1.0" encoding="utf-8"?>
<!-- Generator: Adobe Illustrator 17.0.0, SVG Export Plug-In . SVG Version: 6.00 Build 0)  -->
<!DOCTYPE svg PUBLIC "-//W3C//DTD SVG 1.1//EN" "http://www.w3.org/Graphics/SVG/1.1/DTD/svg11.dtd">
<svg version="1.1" id="图层_1" xmlns="http://www.w3.org/2000/svg" xmlns:xlink="http://www.w3.org/1999/xlink" x="0px" y="0px"
	 width="22px" height="22px" viewBox="0 0 22 22" enable-background="new 0 0 22 22" xml:space="preserve">
<g>
	<g>
		<path fill="#040000" d="M11,1.5c-5.523,0-10,4.477-10,10c0,5.523,4.477,10,10,10c5.523,0,10-4.477,10-10
			C21,5.977,16.523,1.5,11,1.5z M11,20.5c-4.971,0-9-4.029-9-9c0-4.971,4.029-9,9-9s9,4.029,9,9C20,16.47,15.971,20.5,11,20.5z
			 M16.656,8.897l-3.47-0.323l-1.842-3.326c-0.059-0.151-0.195-0.249-0.345-0.249c-0.15,0-0.286,0.098-0.345,0.249L8.792,8.574
			l-3.45,0.323C5.19,8.91,5.062,9.022,5.015,9.181C4.969,9.339,5.014,9.513,5.13,9.62l2.715,2.853L6.91,16.496
			c-0.035,0.161,0.021,0.329,0.143,0.427c0.122,0.098,0.284,0.107,0.414,0.022l3.533-2.205l3.542,2.205
			c0.059,0.039,0.126,0.058,0.192,0.058c0.078,0,0.156-0.027,0.222-0.08c0.121-0.098,0.178-0.266,0.142-0.427l-0.97-4.041
			l2.74-2.835c0.116-0.107,0.161-0.281,0.115-0.439C16.936,9.022,16.807,8.91,16.656,8.897z M15.401,10.043l-2.055,2.22l0.728,2.859
			c0.026,0.12-0.016,0.247-0.107,0.32c-0.049,0.04-0.108,0.06-0.167,0.06c-0.049,0-0.099-0.015-0.144-0.043l-2.672-1.654
			L8.35,15.459c-0.098,0.064-0.219,0.057-0.31-0.016c-0.091-0.074-0.133-0.2-0.107-0.32l0.701-2.846l-2.036-2.234
			c-0.087-0.081-0.121-0.211-0.086-0.33c0.035-0.119,0.131-0.203,0.245-0.213l2.4-0.32l1.584-2.495
			C10.785,6.572,10.887,6.499,11,6.499c0.113,0,0.214,0.074,0.258,0.187l1.569,2.495l2.415,0.32c0.113,0.01,0.21,0.094,0.245,0.213
			C15.522,9.832,15.488,9.963,15.401,10.043z"/>
	</g>
</g>
</svg>
