<?xml version="1.0" encoding="utf-8"?>
<!-- Generator: Adobe Illustrator 17.0.0, SVG Export Plug-In . SVG Version: 6.00 Build 0)  -->
<!DOCTYPE svg PUBLIC "-//W3C//DTD SVG 1.1//EN" "http://www.w3.org/Graphics/SVG/1.1/DTD/svg11.dtd">
<svg version="1.1" id="图层_1" xmlns="http://www.w3.org/2000/svg" xmlns:xlink="http://www.w3.org/1999/xlink" x="0px" y="0px"
	 width="22px" height="22px" viewBox="0 0 22 22" enable-background="new 0 0 22 22" xml:space="preserve">
<g>
	<g>
		<path fill-rule="evenodd" clip-rule="evenodd" fill="#040000" d="M21.012,7.299l-9.3-6.786c-0.19-0.2-0.507-0.208-0.707-0.018
			C11.003,0.497,11.002,0.5,11,0.503c-0.002-0.002-0.003-0.006-0.006-0.008c-0.2-0.19-0.517-0.182-0.707,0.018l-9.3,6.786
			C0.8,7.496,0.807,7.806,1,7.997V19c0,1.104,0.895,2,2,2h16c1.105,0,2-0.895,2-2V7.997C21.193,7.806,21.2,7.496,21.012,7.299z
			 M20,18.5c0,0.828-0.672,1.5-1.5,1.5h-15C2.672,20,2,19.328,2,18.5V7.778l9-6.567l9,6.567V18.5z M10.293,12.485L4.544,8.5H2.916
			l7.377,5.4c0.391,0.391,1.024,0.391,1.414,0l7.377-5.4h-1.628l-5.749,3.985C11.317,12.876,10.683,12.876,10.293,12.485z
			 M6.737,14.805l-3.182,3.182c-0.195,0.195-0.195,0.512,0,0.707c0.195,0.195,0.512,0.195,0.707,0l3.182-3.182
			c0.195-0.195,0.195-0.512,0-0.707C7.249,14.61,6.933,14.61,6.737,14.805z M15.263,14.805c-0.195-0.195-0.512-0.195-0.707,0
			c-0.195,0.195-0.195,0.512,0,0.707l3.182,3.182c0.195,0.195,0.512,0.195,0.707,0c0.195-0.195,0.195-0.512,0-0.707L15.263,14.805z"
			/>
	</g>
</g>
</svg>
