<?xml version="1.0" encoding="utf-8"?>
<!-- Generator: Adobe Illustrator 17.0.0, SVG Export Plug-In . SVG Version: 6.00 Build 0)  -->
<!DOCTYPE svg PUBLIC "-//W3C//DTD SVG 1.1//EN" "http://www.w3.org/Graphics/SVG/1.1/DTD/svg11.dtd">
<svg version="1.1" id="图层_1" xmlns="http://www.w3.org/2000/svg" xmlns:xlink="http://www.w3.org/1999/xlink" x="0px" y="0px"
	 width="22px" height="22px" viewBox="0 0 22 22" enable-background="new 0 0 22 22" xml:space="preserve">
<path fill-rule="evenodd" clip-rule="evenodd" fill="#040000" d="M20.5,12.5h-5c-0.276,0-0.5-0.224-0.5-0.5
	c0-0.276,0.224-0.5,0.5-0.5h5c0.276,0,0.5,0.224,0.5,0.5C21,12.276,20.776,12.5,20.5,12.5z M20.5,9H16c-0.276,0-0.5-0.224-0.5-0.5
	C15.5,8.224,15.724,8,16,8h4.5C20.776,8,21,8.224,21,8.5C21,8.776,20.776,9,20.5,9z M20.5,5.5H16c-0.276,0-0.5-0.224-0.5-0.5
	c0-0.276,0.224-0.5,0.5-0.5h4.5C20.776,4.5,21,4.724,21,5C21,5.276,20.776,5.5,20.5,5.5z M11.489,11.9
	C14.688,12.947,17,15.952,17,19.5c0,0.276-0.224,0.5-0.5,0.5S16,19.776,16,19.5c0-3.866-3.134-7-7-7s-7,3.134-7,7
	C2,19.776,1.776,20,1.5,20S1,19.776,1,19.5c0-3.548,2.312-6.553,5.511-7.6C4.725,10.991,3.5,9.141,3.5,7c0-3.038,2.462-5.5,5.5-5.5
	s5.5,2.462,5.5,5.5C14.5,9.141,13.274,10.991,11.489,11.9z M9,2.5C6.515,2.5,4.5,4.515,4.5,7c0,2.485,2.015,4.5,4.5,4.5
	s4.5-2.015,4.5-4.5C13.5,4.515,11.485,2.5,9,2.5z M17.5,15h3c0.276,0,0.5,0.224,0.5,0.5c0,0.276-0.224,0.5-0.5,0.5h-3
	c-0.276,0-0.5-0.224-0.5-0.5C17,15.224,17.224,15,17.5,15z"/>
</svg>
