<?xml version="1.0" encoding="utf-8"?>
<!-- Generator: Adobe Illustrator 17.0.0, SVG Export Plug-In . SVG Version: 6.00 Build 0)  -->
<!DOCTYPE svg PUBLIC "-//W3C//DTD SVG 1.1//EN" "http://www.w3.org/Graphics/SVG/1.1/DTD/svg11.dtd">
<svg version="1.1" id="图层_1" xmlns="http://www.w3.org/2000/svg" xmlns:xlink="http://www.w3.org/1999/xlink" x="0px" y="0px"
	 width="22px" height="22px" viewBox="0 0 22 22" enable-background="new 0 0 22 22" xml:space="preserve">
<g>
	<g>
		<path fill-rule="evenodd" clip-rule="evenodd" fill="#040000" d="M20.864,20.657l-4.933-4.933
			c0.049-0.047,0.101-0.087,0.149-0.135c3.224-3.222,3.224-8.445,0-11.667C12.856,0.7,7.629,0.7,4.405,3.922
			c-3.224,3.222-3.224,8.445,0,11.667c2.935,2.933,7.524,3.187,10.757,0.78l4.995,4.995c0.195,0.195,0.512,0.195,0.707,0
			C21.059,21.169,21.059,20.852,20.864,20.657z M5.114,14.867c-2.833-2.831-2.833-7.422,0-10.253c2.833-2.831,7.427-2.831,10.26,0
			c2.833,2.831,2.833,7.422,0,10.253C12.54,17.698,7.947,17.698,5.114,14.867z"/>
	</g>
</g>
</svg>
