<?xml version="1.0" encoding="utf-8"?>
<!-- Generator: Adobe Illustrator 17.0.0, SVG Export Plug-In . SVG Version: 6.00 Build 0)  -->
<!DOCTYPE svg PUBLIC "-//W3C//DTD SVG 1.1//EN" "http://www.w3.org/Graphics/SVG/1.1/DTD/svg11.dtd">
<svg version="1.1" id="图层_1" xmlns="http://www.w3.org/2000/svg" xmlns:xlink="http://www.w3.org/1999/xlink" x="0px" y="0px"
	 width="22px" height="22px" viewBox="0 0 22 22" enable-background="new 0 0 22 22" xml:space="preserve">
<g>
	<g>
		<path fill-rule="evenodd" clip-rule="evenodd" fill="#040000" d="M11,7c-2.485,0-4.5,2.015-4.5,4.5c0,2.485,2.015,4.5,4.5,4.5
			s4.5-2.015,4.5-4.5C15.5,9.015,13.485,7,11,7z M11,15c-1.933,0-3.5-1.567-3.5-3.5C7.5,9.567,9.067,8,11,8s3.5,1.567,3.5,3.5
			C14.5,13.433,12.933,15,11,15z M19.5,9h-1.434c-0.089-0.249-0.189-0.492-0.302-0.729l1.014-1.014c0.391-0.391,0.391-1.024,0-1.414
			l-2.121-2.121c-0.391-0.391-1.024-0.391-1.414,0l-1.019,1.019c-0.235-0.112-0.475-0.217-0.723-0.305V3c0-0.552-0.448-1-1-1h-3
			c-0.552,0-1,0.448-1,1v1.436C8.252,4.524,8.011,4.627,7.775,4.74L6.757,3.722c-0.39-0.391-1.024-0.391-1.414,0L3.222,5.843
			c-0.391,0.391-0.391,1.024,0,1.414l1.016,1.016C4.125,8.509,4.021,8.751,3.933,9H2.5c-0.552,0-1,0.448-1,1v3c0,0.552,0.448,1,1,1
			h1.434c0.089,0.249,0.189,0.492,0.302,0.728l-1.014,1.014c-0.391,0.39-0.391,1.024,0,1.414l2.121,2.121
			c0.391,0.391,1.024,0.391,1.414,0l1.019-1.019c0.235,0.112,0.475,0.217,0.723,0.305V20c0,0.552,0.448,1,1,1h3c0.552,0,1-0.448,1-1
			v-1.434c0.249-0.089,0.492-0.189,0.728-0.302l1.014,1.014c0.391,0.391,1.024,0.391,1.414,0l2.121-2.121
			c0.391-0.391,0.391-1.024,0-1.414l-1.019-1.019c0.112-0.235,0.217-0.475,0.305-0.723H19.5c0.552,0,1-0.448,1-1v-3
			C20.5,9.448,20.052,9,19.5,9z M19.5,12.5c0,0.276-0.224,0.5-0.5,0.5h-1.681c-0.162,0.684-0.432,1.325-0.791,1.907l1.189,1.19
			c0.195,0.195,0.195,0.512,0,0.707l-1.414,1.414c-0.195,0.195-0.512,0.195-0.707,0l-1.189-1.189
			c-0.582,0.359-1.223,0.629-1.907,0.791V19.5c0,0.276-0.224,0.5-0.5,0.5h-2c-0.276,0-0.5-0.224-0.5-0.5v-1.681
			c-0.684-0.162-1.325-0.432-1.907-0.791l-1.189,1.189c-0.195,0.195-0.512,0.195-0.707,0l-1.414-1.414
			c-0.195-0.195-0.195-0.512,0-0.707l1.189-1.19C5.113,14.325,4.843,13.684,4.681,13H3c-0.276,0-0.5-0.224-0.5-0.5v-2
			C2.5,10.224,2.724,10,3,10h1.681c0.162-0.684,0.432-1.325,0.791-1.907L4.282,6.904c-0.195-0.195-0.195-0.512,0-0.707l1.414-1.414
			c0.195-0.195,0.512-0.195,0.707,0l1.189,1.189C8.175,5.613,8.816,5.343,9.5,5.181V3.5C9.5,3.224,9.724,3,10,3h2
			c0.276,0,0.5,0.224,0.5,0.5v1.681c0.684,0.162,1.325,0.432,1.907,0.791l1.189-1.189c0.195-0.195,0.512-0.195,0.707,0l1.414,1.414
			c0.195,0.195,0.195,0.512,0,0.707l-1.189,1.189c0.359,0.582,0.629,1.222,0.791,1.907H19c0.276,0,0.5,0.224,0.5,0.5V12.5z"/>
	</g>
</g>
</svg>
