<?xml version="1.0" encoding="utf-8"?>
<!-- Generator: Adobe Illustrator 17.0.0, SVG Export Plug-In . SVG Version: 6.00 Build 0)  -->
<!DOCTYPE svg PUBLIC "-//W3C//DTD SVG 1.1//EN" "http://www.w3.org/Graphics/SVG/1.1/DTD/svg11.dtd">
<svg version="1.1" id="图层_1" xmlns="http://www.w3.org/2000/svg" xmlns:xlink="http://www.w3.org/1999/xlink" x="0px" y="0px"
	 width="22px" height="22px" viewBox="0 0 22 22" enable-background="new 0 0 22 22" xml:space="preserve">
<g>
	<g>
		<path fill-rule="evenodd" clip-rule="evenodd" fill="#040000" d="M17.5,15.5c-1.239,0-2.302,0.752-2.76,1.824l-8.139-3.855
			C6.848,13.033,7,12.536,7,12c0-0.32-0.063-0.622-0.156-0.911l8.27-4.788C15.662,7.025,16.522,7.5,17.5,7.5c1.657,0,3-1.343,3-3
			c0-1.657-1.343-3-3-3c-1.657,0-3,1.343-3,3c0,0.32,0.063,0.622,0.156,0.911l-8.27,4.788C5.838,9.475,4.978,9,4,9
			c-1.657,0-3,1.343-3,3c0,1.657,1.343,3,3,3c0.747,0,1.422-0.283,1.947-0.735l8.571,4.06C14.514,18.384,14.5,18.44,14.5,18.5
			c0,1.657,1.343,3,3,3c1.657,0,3-1.343,3-3S19.157,15.5,17.5,15.5z M17.5,2.5c1.105,0,2,0.895,2,2c0,1.104-0.895,2-2,2
			s-2-0.896-2-2C15.5,3.396,16.395,2.5,17.5,2.5z M2,12c0-1.105,0.895-2,2-2s2,0.895,2,2c0,1.104-0.895,2-2,2S2,13.104,2,12z
			 M17.5,20.5c-1.105,0-2-0.895-2-2s0.895-2,2-2s2,0.895,2,2S18.605,20.5,17.5,20.5z"/>
	</g>
</g>
</svg>
