<?xml version="1.0" encoding="utf-8"?>
<!-- Generator: Adobe Illustrator 17.0.0, SVG Export Plug-In . SVG Version: 6.00 Build 0)  -->
<!DOCTYPE svg PUBLIC "-//W3C//DTD SVG 1.1//EN" "http://www.w3.org/Graphics/SVG/1.1/DTD/svg11.dtd">
<svg version="1.1" id="图层_1" xmlns="http://www.w3.org/2000/svg" xmlns:xlink="http://www.w3.org/1999/xlink" x="0px" y="0px"
	 width="22px" height="22px" viewBox="0 0 22 22" enable-background="new 0 0 22 22" xml:space="preserve">
<g>
	<g>
		<path fill-rule="evenodd" clip-rule="evenodd" fill="#040000" d="M20.076,10L20,10.009V18.5c0,0.552-0.448,1-1,1H3
			c-0.552,0-1-0.448-1-1v-13c0-0.552,0.448-1,1-1h6.694L10.5,3.597L10.369,3.5H3c-1.105,0-2,0.895-2,2v13c0,1.105,0.895,2,2,2h16
			c1.105,0,2-0.895,2-2V9L20.076,10z M8.5,10.939c0,0.912,0.191,1.778,0.531,2.563c0.505-2.68,3.316-5.153,5.968-5.217
			c0,0.146-0.008,2.523-0.008,2.523c-0.015,0.126,0.02,0.257,0.117,0.354c0.001,0.001,0.003,0.001,0.004,0.002
			c0.077,0.081,0.185,0.132,0.306,0.132c0.133,0,0.246-0.065,0.325-0.16l4.637-4.668c0.09-0.09,0.128-0.209,0.122-0.327
			c0.006-0.118-0.032-0.237-0.122-0.327l-4.661-4.694c-0.169-0.169-0.442-0.169-0.611,0c-0.097,0.097-0.132,0.228-0.117,0.354v2.528
			C11.458,4.003,8.5,7.385,8.5,10.939z M14.963,4.857c0.222,0,1.036,0.005,1.036,0.005V2.544l3.512,3.599l-3.512,3.598V7.436
			c0,0-0.757-0.007-1.036-0.007c-1.991,0-4.691,1.574-5.61,3.081C9.353,8.662,11.608,4.857,14.963,4.857z"/>
	</g>
</g>
</svg>
