<?xml version="1.0" encoding="utf-8"?>
<!-- Generator: Adobe Illustrator 17.0.0, SVG Export Plug-In . SVG Version: 6.00 Build 0)  -->
<!DOCTYPE svg PUBLIC "-//W3C//DTD SVG 1.1//EN" "http://www.w3.org/Graphics/SVG/1.1/DTD/svg11.dtd">
<svg version="1.1" id="图层_1" xmlns="http://www.w3.org/2000/svg" xmlns:xlink="http://www.w3.org/1999/xlink" x="0px" y="0px"
	 width="22px" height="22px" viewBox="0 0 22 22" enable-background="new 0 0 22 22" xml:space="preserve">
<g>
	<g>
		<path fill="#040000" d="M20.971,8.129c-0.077-0.258-0.292-0.44-0.544-0.462l-5.784-0.359l-3.07-5.405
			c-0.098-0.246-0.324-0.405-0.574-0.405c-0.25,0-0.476,0.159-0.575,0.405L7.32,7.308L1.569,7.644
			C1.317,7.667,1.102,7.849,1.026,8.106C0.948,8.364,1.024,8.646,1.217,8.82l4.524,4.823l-1.557,6.538
			c-0.059,0.261,0.036,0.534,0.238,0.694c0.203,0.158,0.473,0.173,0.69,0.036l5.888-3.584l5.903,3.584
			c0.099,0.063,0.209,0.094,0.319,0.094c0.131,0,0.261-0.044,0.37-0.13c0.202-0.16,0.296-0.433,0.237-0.694l-1.617-6.567
			l4.568-4.772C20.973,8.668,21.048,8.386,20.971,8.129z M19.313,9.326l-4.382,3.925l1.875,5.557c0.05,0.221-0.03,0.452-0.202,0.587
			c-0.094,0.073-0.204,0.11-0.315,0.11c-0.094,0-0.188-0.027-0.271-0.08l-5.018-3.532l-5.005,3.532
			c-0.184,0.117-0.414,0.104-0.586-0.03c-0.172-0.135-0.252-0.366-0.202-0.587l1.824-5.532L2.684,9.306
			C2.52,9.159,2.456,8.92,2.522,8.702C2.587,8.485,2.77,8.331,2.984,8.312l4.888,0.102l2.639-5.074
			c0.083-0.208,0.275-0.343,0.488-0.343c0.213,0,0.405,0.135,0.488,0.343l2.609,5.074l4.917-0.083
			c0.214,0.019,0.397,0.173,0.462,0.391C19.541,8.939,19.477,9.178,19.313,9.326z"/>
	</g>
</g>
</svg>
