<?xml version="1.0" encoding="utf-8"?>
<!-- Generator: Adobe Illustrator 17.0.0, SVG Export Plug-In . SVG Version: 6.00 Build 0)  -->
<!DOCTYPE svg PUBLIC "-//W3C//DTD SVG 1.1//EN" "http://www.w3.org/Graphics/SVG/1.1/DTD/svg11.dtd">
<svg version="1.1" id="图层_1" xmlns="http://www.w3.org/2000/svg" xmlns:xlink="http://www.w3.org/1999/xlink" x="0px" y="0px"
	 width="22px" height="22px" viewBox="0 0 22 22" enable-background="new 0 0 22 22" xml:space="preserve">
<g>
	<g>
		<path fill-rule="evenodd" clip-rule="evenodd" fill="#040000" d="M11,4.891c-2.27,0-4.109,1.84-4.109,4.109
			c0,2.27,1.84,4.109,4.109,4.109c2.27,0,4.109-1.84,4.109-4.109C15.109,6.731,13.27,4.891,11,4.891z M11,12.141
			c-1.734,0-3.141-1.406-3.141-3.141S9.266,5.859,11,5.859S14.141,7.266,14.141,9S12.734,12.141,11,12.141z M17.146,12.351
			C17.69,11.356,18,10.214,18,9c0-3.866-3.134-7-7-7C7.134,2,4,5.134,4,9c0,1.214,0.31,2.356,0.854,3.351l-2.885,4.997l3.526,0.881
			l2.536,2.619l2.804-4.856C10.89,15.993,10.944,16,11,16s0.11-0.007,0.165-0.008l2.804,4.856l2.536-2.619l3.526-0.881
			L17.146,12.351z M7.915,19.049l-1.692-1.631l-2.638-0.868l1.886-3.267c1.036,1.336,2.542,2.285,4.273,2.599L7.915,19.049z
			 M11,15.031c-3.331,0-6.031-2.7-6.031-6.031c0-3.331,2.7-6.031,6.031-6.031c3.331,0,6.031,2.7,6.031,6.031
			C17.031,12.331,14.331,15.031,11,15.031z M15.777,17.418l-1.692,1.631l-1.829-3.168c1.731-0.314,3.237-1.263,4.273-2.599
			l1.886,3.267L15.777,17.418z"/>
	</g>
</g>
</svg>
