<?xml version="1.0" encoding="utf-8"?>
<!-- Generator: Adobe Illustrator 17.0.0, SVG Export Plug-In . SVG Version: 6.00 Build 0)  -->
<!DOCTYPE svg PUBLIC "-//W3C//DTD SVG 1.1//EN" "http://www.w3.org/Graphics/SVG/1.1/DTD/svg11.dtd">
<svg version="1.1" id="图层_1" xmlns="http://www.w3.org/2000/svg" xmlns:xlink="http://www.w3.org/1999/xlink" x="0px" y="0px"
	 width="22px" height="22px" viewBox="0 0 22 22" enable-background="new 0 0 22 22" xml:space="preserve">
<path fill-rule="evenodd" clip-rule="evenodd" fill="#040000" d="M17,20.5H4.5c-1.104,0-2-0.895-2-2V7.002L2.493,6.995L8.5,1.004V1
	h0.004l0.008-0.008L8.519,1H17c1.105,0,2,0.896,2,2v15.5C19,19.605,18.105,20.5,17,20.5z M8.5,2.416L3.904,7H7.5
	c0.552,0,1-0.448,1-1V2.416z M18,3c0-0.552-0.448-1-1-1H9.5v4c0,1.104-0.895,2-2,2h-4v10.5c0,0.552,0.448,1,1,1H17
	c0.552,0,1-0.448,1-1V3z M15.5,16.5H6c-0.276,0-0.5-0.224-0.5-0.5c0-0.276,0.224-0.5,0.5-0.5h9.5c0.276,0,0.5,0.224,0.5,0.5
	C16,16.276,15.776,16.5,15.5,16.5z M15.5,13H6c-0.276,0-0.5-0.224-0.5-0.5C5.5,12.224,5.724,12,6,12h9.5c0.276,0,0.5,0.224,0.5,0.5
	C16,12.776,15.776,13,15.5,13z M15.5,9.5H6C5.724,9.5,5.5,9.276,5.5,9c0-0.276,0.224-0.5,0.5-0.5h9.5C15.776,8.5,16,8.724,16,9
	C16,9.276,15.776,9.5,15.5,9.5z M15.5,6H11c-0.276,0-0.5-0.224-0.5-0.5C10.5,5.224,10.724,5,11,5h4.5C15.776,5,16,5.224,16,5.5
	C16,5.776,15.776,6,15.5,6z"/>
</svg>
