<?xml version="1.0" encoding="utf-8"?>
<!-- Generator: Adobe Illustrator 17.0.0, SVG Export Plug-In . SVG Version: 6.00 Build 0)  -->
<!DOCTYPE svg PUBLIC "-//W3C//DTD SVG 1.1//EN" "http://www.w3.org/Graphics/SVG/1.1/DTD/svg11.dtd">
<svg version="1.1" id="图层_1" xmlns="http://www.w3.org/2000/svg" xmlns:xlink="http://www.w3.org/1999/xlink" x="0px" y="0px"
	 width="22px" height="22px" viewBox="0 0 22 22" enable-background="new 0 0 22 22" xml:space="preserve">
<path fill-rule="evenodd" clip-rule="evenodd" fill="#040000" d="M18,6.5V19c0,1.105-0.896,2-2,2H6c-1.105,0-2-0.896-2-2V6.5
	c-0.552,0-1-0.448-1-1v-1c0-0.552,0.448-1,1-1h3v-1c0-0.553,0.448-1,1-1h6c0.552,0,1,0.448,1,1v1h3c0.552,0,1,0.448,1,1v1
	C19,6.053,18.552,6.5,18,6.5z M5,6.5V19c0,0.552,0.448,1,1,1h10c0.552,0,1-0.448,1-1V6.5C16.438,6.5,5.687,6.5,5,6.5z M8,3.5V3
	c0-0.276,0.224-0.5,0.5-0.5h5C13.776,2.5,14,2.724,14,3v0.5C13.516,3.5,8,3.5,8,3.5 M17.5,4.5h-13C4.224,4.5,4,4.724,4,5
	c0,0.276,0.224,0.5,0.5,0.5h13C17.776,5.5,18,5.276,18,5C18,4.724,17.776,4.5,17.5,4.5z M8,9c0.276,0,0.5,0.224,0.5,0.5v7
	C8.5,16.776,8.276,17,8,17c-0.276,0-0.5-0.224-0.5-0.5v-7C7.5,9.224,7.724,9,8,9z M11,9c0.276,0,0.5,0.224,0.5,0.5v7
	c0,0.276-0.224,0.5-0.5,0.5c-0.276,0-0.5-0.224-0.5-0.5v-7C10.5,9.224,10.724,9,11,9z M14,9c0.276,0,0.5,0.224,0.5,0.5v7
	c0,0.276-0.224,0.5-0.5,0.5c-0.276,0-0.5-0.224-0.5-0.5v-7C13.5,9.224,13.724,9,14,9z"/>
</svg>
