<?xml version="1.0" encoding="utf-8"?>
<!-- Generator: Adobe Illustrator 17.0.0, SVG Export Plug-In . SVG Version: 6.00 Build 0)  -->
<!DOCTYPE svg PUBLIC "-//W3C//DTD SVG 1.1//EN" "http://www.w3.org/Graphics/SVG/1.1/DTD/svg11.dtd">
<svg version="1.1" id="图层_1" xmlns="http://www.w3.org/2000/svg" xmlns:xlink="http://www.w3.org/1999/xlink" x="0px" y="0px"
	 width="22px" height="22px" viewBox="0 0 22 22" enable-background="new 0 0 22 22" xml:space="preserve">
<g>
	<g>
		<path fill-rule="evenodd" clip-rule="evenodd" fill="#040000" d="M19,3.5H3c-1.105,0-2,0.896-2,2v12c0,1.105,0.895,2,2,2h16
			c1.105,0,2-0.895,2-2v-12C21,4.396,20.105,3.5,19,3.5z M20,17.5c0,0.552-0.448,1-1,1H3c-0.552,0-1-0.448-1-1v-12
			c0-0.552,0.448-1,1-1h16c0.552,0,1,0.448,1,1V17.5z M6.737,13.305l-3.182,3.182c-0.195,0.195-0.195,0.512,0,0.707
			c0.195,0.195,0.512,0.195,0.707,0l3.182-3.182c0.195-0.195,0.195-0.512,0-0.707C7.249,13.11,6.933,13.11,6.737,13.305z
			 M11.707,11.985c-0.391,0.391-1.024,0.391-1.414,0L4.308,6H2.893l7.4,7.4c0.391,0.39,1.024,0.39,1.414,0L19.107,6h-1.414
			L11.707,11.985z M15.263,13.305c-0.195-0.195-0.512-0.195-0.707,0c-0.195,0.195-0.195,0.512,0,0.707l3.182,3.182
			c0.195,0.195,0.512,0.195,0.707,0c0.195-0.195,0.195-0.512,0-0.707L15.263,13.305z"/>
	</g>
</g>
</svg>
