<?xml version="1.0" encoding="utf-8"?>
<!-- Generator: Adobe Illustrator 17.0.0, SVG Export Plug-In . SVG Version: 6.00 Build 0)  -->
<!DOCTYPE svg PUBLIC "-//W3C//DTD SVG 1.1//EN" "http://www.w3.org/Graphics/SVG/1.1/DTD/svg11.dtd">
<svg version="1.1" id="图层_1" xmlns="http://www.w3.org/2000/svg" xmlns:xlink="http://www.w3.org/1999/xlink" x="0px" y="0px"
	 width="22px" height="22px" viewBox="0 0 22 22" enable-background="new 0 0 22 22" xml:space="preserve">
<g>
	<g>
		<path fill-rule="evenodd" clip-rule="evenodd" fill="#040000" d="M20.5,19.5h-1V10c0-0.552-0.448-1-1-1h-5v1H18
			c0.276,0,0.5,0.224,0.5,0.5V19c0,0.276-0.224,0.5-0.5,0.5h-6v-17c0-0.552-0.448-1-1-1H3.5c-0.552,0-1,0.448-1,1v17h-1
			C1.224,19.5,1,19.724,1,20c0,0.276,0.224,0.5,0.5,0.5h19c0.276,0,0.5-0.224,0.5-0.5C21,19.724,20.776,19.5,20.5,19.5z M11,19.5
			H3.5V3c0-0.276,0.224-0.5,0.5-0.5h6.5C10.776,2.5,11,2.724,11,3V19.5z M5,9h1.5V7.5H5V9z M5,6h1.5V4.5H5V6z M8,9h1.5V7.5H8V9z
			 M8,6h1.5V4.5H8V6z"/>
	</g>
</g>
</svg>
