<?xml version="1.0" encoding="utf-8"?>
<!-- Generator: Adobe Illustrator 17.0.0, SVG Export Plug-In . SVG Version: 6.00 Build 0)  -->
<!DOCTYPE svg PUBLIC "-//W3C//DTD SVG 1.1//EN" "http://www.w3.org/Graphics/SVG/1.1/DTD/svg11.dtd">
<svg version="1.1" id="图层_1" xmlns="http://www.w3.org/2000/svg" xmlns:xlink="http://www.w3.org/1999/xlink" x="0px" y="0px"
	 width="22px" height="22px" viewBox="0 0 22 22" enable-background="new 0 0 22 22" xml:space="preserve">
<g>
	<g>
		<path fill-rule="evenodd" clip-rule="evenodd" fill="#040000" d="M20.5,14.5h-6c-0.276,0-0.5,0.224-0.5,0.5
			c0,0.276,0.224,0.5,0.5,0.5h6c0.276,0,0.5-0.224,0.5-0.5C21,14.724,20.776,14.5,20.5,14.5z M20.5,17.5h-6
			c-0.276,0-0.5,0.224-0.5,0.5c0,0.276,0.224,0.5,0.5,0.5h6c0.276,0,0.5-0.224,0.5-0.5C21,17.724,20.776,17.5,20.5,17.5z M20.5,20.5
			h-6c-0.276,0-0.5,0.224-0.5,0.5c0,0.276,0.224,0.5,0.5,0.5h6c0.276,0,0.5-0.224,0.5-0.5C21,20.724,20.776,20.5,20.5,20.5z
			 M12.057,12.409l4.164-4.164c0.195-0.195,0.195-0.512,0-0.707c-0.195-0.195-0.512-0.195-0.707,0l-4.164,4.164L8.611,8.963
			c-0.195-0.195-0.512-0.195-0.707,0c-0.195,0.195-0.195,0.512,0,0.707l2.739,2.739l-0.785,0.785c-0.195,0.195-0.195,0.512,0,0.707
			c0.195,0.195,0.512,0.195,0.707,0l0.785-0.785l0.797,0.797c0.195,0.195,0.512,0.195,0.707,0c0.195-0.195,0.195-0.512,0-0.707
			L12.057,12.409z M11.5,1.5c-5.523,0-10,4.477-10,10c0,5.523,4.477,10,10,10c0.338,0,0.671-0.018,1-0.05v-1.034
			c-0.166,0.019-0.331,0.042-0.5,0.052V18c0-0.276-0.224-0.5-0.5-0.5c-0.276,0-0.5,0.224-0.5,0.5v2.467
			C6.461,20.214,2.764,16.561,2.529,12H5c0.276,0,0.5-0.224,0.5-0.5C5.5,11.224,5.276,11,5,11H2.533
			C2.808,6.471,6.488,2.787,11,2.53V5c0,0.276,0.224,0.5,0.5,0.5C11.776,5.5,12,5.276,12,5V2.531
			c4.513,0.257,8.193,3.941,8.468,8.469H18c-0.276,0-0.5,0.224-0.5,0.5c0,0.276,0.224,0.5,0.5,0.5h2.471
			c-0.026,0.513-0.101,1.014-0.212,1.5h1.034c0.132-0.647,0.207-1.314,0.207-2C21.5,5.977,17.023,1.5,11.5,1.5z"/>
	</g>
</g>
</svg>
